<svg xmlns="http://www.w3.org/2000/svg" width="79.474" height="83.866" viewBox="0 0 79.474 83.866"><g transform="translate(0.447 0.5)"><path d="M-173.3,152.157a41.39,41.39,0,0,0,34.356,18.267,41.433,41.433,0,0,0,41.433-41.433,41.433,41.433,0,0,0-41.433-41.433,41.433,41.433,0,0,0-37.094,22.953" transform="translate(176.04 -87.559)" fill="none" stroke="#f0e2e2" stroke-miterlimit="10" stroke-width="1"/><g transform="translate(6.742 6.656)"><path d="M-165.306,116.4l-3.519-2.016,1.321-2.305.39.223-1.07,1.868,1.134.649,1.049-1.83.39.224-1.048,1.83,1.214.7,1.07-1.868.39.223Z" transform="translate(168.825 -95.823)" fill="#f0e2e2"/><path d="M-162.363,110.848l-.093-.477a1.717,1.717,0,0,0,1.275-.585c.475-.546.333-.976.1-1.179-.789-.687-1.93,1.505-3.023.555a1.233,1.233,0,0,1,.065-1.789,1.906,1.906,0,0,1,1.373-.717l.08.473a1.554,1.554,0,0,0-1.137.567.724.724,0,0,0-.061,1.052c.689.6,1.871-1.558,3.013-.564.446.388.636,1.086-.082,1.912A2.006,2.006,0,0,1-162.363,110.848Z" transform="translate(168.539 -95.468)" fill="#f0e2e2"/><path d="M-156.5,105.761l-2.223-2.841-1.011.791-.278-.355,2.424-1.9.278.354-1.016.8,2.224,2.841Z" transform="translate(168.247 -95.127)" fill="#f0e2e2"/><path d="M-149.737,101.656l-.73-.635-1.794.923.092.963-.513.264-.406-4.35.556-.286,3.309,2.856Zm-2.831-2.514.231,2.335,1.53-.787Z" transform="translate(167.793 -94.935)" fill="#f0e2e2"/><path d="M-145.99,100.164l-1.065-3.918,1.745-.475a1.024,1.024,0,0,1,1.37.7.923.923,0,0,1-.443,1.087,1.012,1.012,0,0,1,1.026.755,1.059,1.059,0,0,1-.847,1.366Zm1.563-3.484a.637.637,0,0,0-.847-.45l-1.175.319.344,1.263,1.175-.32A.631.631,0,0,0-144.427,96.679Zm.549,1.717a.691.691,0,0,0-.912-.477l-1.2.326.367,1.351,1.2-.325A.673.673,0,0,0-143.877,98.4Z" transform="translate(167.397 -94.75)" fill="#f0e2e2"/><path d="M-139.319,98.8l-.3-4.051.5-.036.263,3.6,1.883-.136.032.449Z" transform="translate(166.909 -94.684)" fill="#f0e2e2"/><path d="M-133.269,98.723l.333-4.041.5.042-.333,4.041Z" transform="translate(166.492 -94.682)" fill="#f0e2e2"/><path d="M-129.163,98.688l.383-.3a1.71,1.71,0,0,0,1.1.872c.7.177,1.021-.145,1.1-.446.255-1.015-2.217-1.04-1.864-2.444a1.233,1.233,0,0,1,1.626-.753,1.908,1.908,0,0,1,1.26.9l-.385.286a1.554,1.554,0,0,0-1.02-.759c-.473-.119-.873.05-.966.422-.222.886,2.237.963,1.867,2.434-.143.572-.68,1.059-1.742.791A2.011,2.011,0,0,1-129.163,98.688Z" transform="translate(166.223 -94.74)" fill="#f0e2e2"/><path d="M-120.309,102.473l.82-1.671-2.13-1.046-.82,1.672-.453-.223,1.788-3.642.453.223-.77,1.567,2.129,1.046.77-1.568.453.223-1.788,3.642Z" transform="translate(165.812 -94.871)" fill="#f0e2e2"/><path d="M-116.542,104.825l2.492-3.2,2.094,1.632-.277.355-1.7-1.322-.8,1.03,1.662,1.3-.277.354-1.661-1.3-.86,1.1,1.7,1.323-.277.354Z" transform="translate(165.395 -95.138)" fill="#f0e2e2"/><path d="M-111.726,109.044l3.091-2.626.9,1.057a1.973,1.973,0,0,1-.2,2.9,1.965,1.965,0,0,1-2.889-.275Zm3.447.933a1.483,1.483,0,0,0,.2-2.21l-.571-.672-2.405,2.043.571.672A1.491,1.491,0,0,0-108.279,109.976Z" transform="translate(165.079 -95.452)" fill="#f0e2e2"/><path d="M-105.441,118.681l.376-.142c1.592.959,2.5,1.46,3.157,1.212a.76.76,0,0,0,.4-1.054,1.356,1.356,0,0,0-.868-.848l.192-.4a1.756,1.756,0,0,1,1.1,1.094,1.234,1.234,0,0,1-.633,1.7c-.774.293-1.776-.225-3.012-.966l.7,1.859-.421.16Z" transform="translate(164.667 -96.175)" fill="#f0e2e2"/><path d="M-101.453,124.554c.978-.161,2.136.093,2.316,1.192s-.836,1.708-1.815,1.869-2.143-.1-2.321-1.191S-102.425,124.713-101.453,124.554Zm.419,2.551c.8-.131,1.578-.524,1.453-1.286s-.99-.887-1.787-.755-1.585.524-1.46,1.287S-101.833,127.236-101.035,127.1Z" transform="translate(164.526 -96.639)" fill="#f0e2e2"/><path d="M-100.711,131.6c.99.037,2.073.516,2.031,1.627s-1.158,1.508-2.147,1.471-2.079-.522-2.038-1.628S-101.7,131.561-100.711,131.6Zm-.1,2.581c.808.031,1.65-.2,1.679-.971s-.793-1.063-1.6-1.094-1.656.2-1.685.971S-101.616,134.15-100.808,134.18Z" transform="translate(164.498 -97.104)" fill="#f0e2e2"/><path d="M-102.809,138.4l.253.38a1.337,1.337,0,0,0-.784.963.877.877,0,0,0,.627,1.115.855.855,0,0,0,1.07-.7,1.267,1.267,0,0,0-.152-1l.211-.331,2.129.513-.582,2.414-.437-.1.463-1.924-1.373-.331a1.38,1.38,0,0,1,.133,1.009,1.244,1.244,0,0,1-1.563.95,1.328,1.328,0,0,1-.963-1.716A1.657,1.657,0,0,1-102.809,138.4Z" transform="translate(164.561 -97.55)" fill="#f0e2e2"/></g></g></svg>