<svg id="BOOTSTRAPLogo" xmlns="http://www.w3.org/2000/svg" width="56.139" height="63.658" viewBox="0 0 56.139 63.658">
  <g id="HTML5Logo">
    <path id="Tracé_2" data-name="Tracé 2" d="M79.707,157.915,74.6,100.6h56.139l-5.107,57.286-23.01,6.373" transform="translate(-74.6 -100.6)" fill="#563d7c"/>
    <path id="Tracé_3" data-name="Tracé 3" d="M256,185.081V131h22.948l-4.379,48.9" transform="translate(-227.93 -126.296)" fill="#9781b7"/>
  </g>
  <path id="Tracé_15" data-name="Tracé 15" d="M166.3,133h15.629a11.191,11.191,0,0,1,6.937,1.982,7.049,7.049,0,0,1,2.612,5.99,7.166,7.166,0,0,1-1.189,4.162,7.659,7.659,0,0,1-3.405,2.684v.09a7.051,7.051,0,0,1,4.5,2.81,9.335,9.335,0,0,1,1.532,5.477,9.166,9.166,0,0,1-.675,3.533,7.135,7.135,0,0,1-2.117,2.84,10.791,10.791,0,0,1-3.693,1.892,18.111,18.111,0,0,1-5.36.7H166.3Zm5.63,13.467h9.189a4.992,4.992,0,0,0,3.378-1.153A4.126,4.126,0,0,0,185.848,142a4.188,4.188,0,0,0-1.216-3.423,5.459,5.459,0,0,0-3.513-.991H171.93Zm0,14.1h9.955a5.556,5.556,0,0,0,3.982-1.333,4.909,4.909,0,0,0,1.423-3.765,4.687,4.687,0,0,0-1.423-3.675,5.69,5.69,0,0,0-3.982-1.279h-9.954Z" transform="translate(-151.714 -117.269)" fill="#fff"/>
</svg>
