<svg width="18" height="19" viewBox="0 0 18 19" fill="none" xmlns="http://www.w3.org/2000/svg">
<rect x="2.10052" y="0.862183" width="22.4852" height="2.81065" rx="1.40533" transform="rotate(45 2.10052 0.862183)" fill="white"/>
<rect x="2.10052" y="0.862183" width="22.4852" height="2.81065" rx="1.40533" transform="rotate(45 2.10052 0.862183)" fill="white"/>
<rect x="2.10052" y="0.862183" width="22.4852" height="2.81065" rx="1.40533" transform="rotate(45 2.10052 0.862183)" fill="white"/>
<rect x="2.10052" y="0.862183" width="22.4852" height="2.81065" rx="1.40533" transform="rotate(45 2.10052 0.862183)" fill="white"/>
<rect y="16.8047" width="22.4852" height="2.81065" rx="1.40533" transform="rotate(-45 0 16.8047)" fill="white"/>
<rect y="16.8047" width="22.4852" height="2.81065" rx="1.40533" transform="rotate(-45 0 16.8047)" fill="white"/>
<rect y="16.8047" width="22.4852" height="2.81065" rx="1.40533" transform="rotate(-45 0 16.8047)" fill="white"/>
<rect y="16.8047" width="22.4852" height="2.81065" rx="1.40533" transform="rotate(-45 0 16.8047)" fill="white"/>
</svg>
