<svg width="55" height="62" viewBox="0 0 55 62" fill="none" xmlns="http://www.w3.org/2000/svg">
<path d="M54.067 0L49.141 55.18L27.001 61.318L4.921 55.188L0 0H54.067Z" fill="#264DE4"/>
<path d="M44.924 51.665L49.133 4.51199H27.033V56.624L44.924 51.665Z" fill="#2965F1"/>
<path d="M11.28 24.981L11.886 31.75H27.031V24.981H11.28Z" fill="#EBEBEB"/>
<path d="M27.029 11.278H10.061L10.676 18.047H27.029V11.278Z" fill="#EBEBEB"/>
<path d="M27.034 49.601V42.559L27.005 42.567L19.466 40.531L18.984 35.131H12.19L13.138 45.759L27.003 49.608L27.034 49.601Z" fill="#EBEBEB"/>
<path d="M35.344 31.749L34.558 40.527L27.009 42.565V49.607L40.887 45.761L40.987 44.617L42.578 26.797L42.743 24.98L43.965 11.28H27.01V18.049H36.548L35.931 24.976H27.009V31.745L35.344 31.749Z" fill="white"/>
</svg>
