<svg id="JAVASCRIPTLogo" xmlns="http://www.w3.org/2000/svg" width="56.148" height="63.668" viewBox="0 0 56.148 63.668">
  <g id="HTML5Logo">
    <path id="Tracé_2" data-name="Tracé 2" d="M79.707,157.924,74.6,100.6h56.148l-5.107,57.294-23.013,6.374" transform="translate(-74.6 -100.6)" fill="#f7df1e"/>
    <path id="Tracé_3" data-name="Tracé 3" d="M256,185.09V131h22.952l-4.38,48.905" transform="translate(-227.926 -126.295)" fill="#ffec52"/>
  </g>
  <path id="Tracé_9" data-name="Tracé 9" d="M213.376,310.091a13.779,13.779,0,0,0,.96,1.377,7.037,7.037,0,0,0,5.889,2.841c2.877,0,4.715-1.438,4.715-3.425,0-2.381-1.889-3.225-5.057-4.61l-1.736-.745c-5.011-2.135-8.34-4.809-8.34-10.461,0-5.208,3.968-9.173,10.17-9.173,4.415,0,7.59,1.537,9.877,5.56l-5.407,3.472c-1.191-2.135-2.475-2.979-4.469-2.979a3.024,3.024,0,0,0-3.325,2.979c0,2.083,1.29,2.926,4.27,4.217l1.736.743c5.9,2.53,9.232,5.109,9.232,10.909,0,6.253-4.911,9.678-11.507,9.678a16.405,16.405,0,0,1-6.125-1.112,12.326,12.326,0,0,1-6.53-5.989Z" transform="translate(-186.166 -271.306)" fill="#fff"/>
  <path id="Tracé_8" data-name="Tracé 8" d="M171.6,311.253c1.1,1.958,2.108,3.614,4.521,3.614,2.308,0,3.765-.9,3.765-4.414V286.566h7.026V310.55c0,7.274-4.265,10.586-10.491,10.586-5.625,0-8.883-2.91-10.54-6.417Z" transform="translate(-158.622 -271.98)" fill="#ebebeb"/>
</svg>
