<svg id="NODEJSLogo" xmlns="http://www.w3.org/2000/svg" width="56.145" height="63.666" viewBox="0 0 56.145 63.666">
  <g id="HTML5Logo">
    <path id="Tracé_2" data-name="Tracé 2" d="M79.707,157.922,74.6,100.6h56.145l-5.107,57.292-23.012,6.373" transform="translate(-74.6 -100.6)" fill="#80bd01"/>
    <path id="Tracé_3" data-name="Tracé 3" d="M256,185.087V131h22.951l-4.38,48.9" transform="translate(-227.927 -126.295)" fill="#97de01"/>
  </g>
  <path id="SVGLogo" d="M57.068,74.562a3.117,3.117,0,0,1-1.564-.42l-4.965-3c-.741-.421-.384-.561-.139-.673a9.3,9.3,0,0,0,2.249-1.039.4.4,0,0,1,.357.028l3.81,2.3a.462.462,0,0,0,.466,0L72.128,63a.5.5,0,0,0,.22-.421V45.108a.5.5,0,0,0-.22-.421L57.315,35.931a.462.462,0,0,0-.466,0L42.035,44.684a.523.523,0,0,0-.247.42V62.611a.4.4,0,0,0,.247.393L46.1,65.416c2.195,1.122,3.566-.2,3.566-1.543V46.592a.439.439,0,0,1,.439-.449H52a.439.439,0,0,1,.439.449V63.873c0,3-1.593,4.741-4.389,4.741a6.275,6.275,0,0,1-3.429-.954l-3.949-2.272A3.219,3.219,0,0,1,39.1,62.611v-17.5a3.256,3.256,0,0,1,1.564-2.777L55.5,33.575a3.256,3.256,0,0,1,3.127,0l14.84,8.753a3.219,3.219,0,0,1,1.564,2.78v17.5a3.256,3.256,0,0,1-1.564,2.777l-14.84,8.753a3.118,3.118,0,0,1-1.564.42ZM69.028,57.308c0-3.282-2.167-4.152-6.72-4.769-4.608-.617-5.075-.954-5.075-2.048,0-.9.384-2.132,3.81-2.132,3.048,0,4.17.673,4.636,2.777a.416.416,0,0,0,.412.337h1.92a.436.436,0,0,0,.3-.139A.391.391,0,0,0,68.422,51c-.3-3.619-2.661-5.3-7.406-5.3-4.226,0-6.748,1.823-6.748,4.881,0,3.31,2.494,4.236,6.556,4.657,4.856.477,5.239,1.206,5.239,2.188,0,1.683-1.316,2.413-4.444,2.413-3.923,0-4.8-1.01-5.075-3a.423.423,0,0,0-.439-.364H54.188a.439.439,0,0,0-.439.449c0,2.553,1.372,5.611,7.846,5.611C66.34,62.5,69.028,60.619,69.028,57.308Z" transform="translate(-29.024 -22.055)" fill="#fff"/>
</svg>
