<svg xmlns="http://www.w3.org/2000/svg" width="56.062" height="63.571" viewBox="0 0 56.062 63.571">
  <g id="Groupe_78" data-name="Groupe 78" transform="translate(-117.636 -2794.487)">
    <g id="Groupe_4" data-name="Groupe 4" transform="translate(117.636 2794.487)">
      <g id="JAVASCRIPTLogo">
        <g id="HTML5Logo">
          <path id="Tracé_2" data-name="Tracé 2" d="M79.7,157.837,74.6,100.6h56.062l-5.1,57.207-22.978,6.364" transform="translate(-74.6 -100.6)" fill="#336791"/>
          <path id="Tracé_3" data-name="Tracé 3" d="M256,185.007V131h22.917l-4.373,48.831" transform="translate(-227.968 -126.302)" fill="#6d95b5"/>
        </g>
      </g>
    </g>
    <g id="Layer_x0020_3" transform="translate(124.89 2806.73)">
      <path id="Tracé_92" data-name="Tracé 92" d="M47.866,45.143c.264-2.2-.736-.632.9-.276l.981.156a9.47,9.47,0,0,0,3.873-.652c2.082-.966,3.317-2.58,1.264-2.156-4.684.966-5.006-.62-5.006-.62,4.946-7.339,7.014-16.654,5.229-18.935-4.868-6.22-13.294-3.279-13.435-3.2l-.045.008a16.7,16.7,0,0,0-3.125-.326,7.719,7.719,0,0,0-4.948,1.481S18.524,14.43,19.224,28.41c.149,2.974,4.263,22.5,9.17,16.605,1.794-2.157,3.527-3.981,3.527-3.981a4.549,4.549,0,0,0,2.972.759l.084-.071a3.258,3.258,0,0,0,.033.84c-1.264,1.412-.893,1.66-3.42,2.181-2.557.527-1.055,1.465-.074,1.71a5.2,5.2,0,0,0,5.8-1.883l-.074.3c.5.4.2,2.853.269,4.607a17.53,17.53,0,0,0,.538,4.461c.358.965,1.051,3.344,4.372,2.632,2.776-.595,5.038-1.451,5.232-9.416" transform="translate(-17.412 -18.64)" fill="#282a36"/>
      <path id="Tracé_93" data-name="Tracé 93" d="M54.881,42.214c-4.684.966-5.006-.62-5.006-.62,4.946-7.339,7.014-16.655,5.229-18.935-4.868-6.219-13.294-3.278-13.435-3.2l-.045.008A16.706,16.706,0,0,0,38.5,19.14a7.719,7.719,0,0,0-4.947,1.481S18.52,14.428,19.219,28.409c.149,2.974,4.263,22.5,9.17,16.605,1.794-2.157,3.527-3.981,3.527-3.981a4.549,4.549,0,0,0,2.971.759l.084-.071a3.275,3.275,0,0,0,.034.84c-1.264,1.412-.893,1.66-3.42,2.181-2.557.527-1.055,1.465-.074,1.71a5.2,5.2,0,0,0,5.8-1.883l-.074.3c.5.4.843,2.581.785,4.56a12.558,12.558,0,0,0,.293,4.4c.39,1.062.779,3.45,4.1,2.738,2.776-.595,4.214-2.136,4.415-4.708.142-1.828.463-1.558.484-3.192l.482-2.553c.3-2.478-.178-1.5,1.533-1.127l.416.037a9.471,9.471,0,0,0,3.873-.652c2.082-.966,3.317-2.58,1.264-2.156Z" transform="translate(-17.407 -18.638)" fill="#282a36"/>
      <path id="Tracé_94" data-name="Tracé 94" d="M215.448,286.484c-.129,4.611.032,9.255.484,10.383s1.418,3.324,4.74,2.612c2.776-.6,3.786-1.747,4.224-4.288.323-1.87.945-7.064,1.025-8.128" transform="translate(-195.345 -261.488)" fill="none" stroke="#fff" stroke-linecap="round" stroke-linejoin="round" stroke-width="0.3"/>
      <path id="Tracé_95" data-name="Tracé 95" d="M33.2,25.147S18.162,19,18.862,32.98c.149,2.974,4.263,22.505,9.17,16.606,1.793-2.157,3.415-3.849,3.415-3.849" transform="translate(-17.084 -23.268)" fill="none" stroke="#fff" stroke-linecap="round" stroke-linejoin="round" stroke-width="0.3"/>
      <path id="Tracé_96" data-name="Tracé 96" d="M260.136,18.834c-.521.163,8.367-3.249,13.418,3.205,1.784,2.28-.283,11.6-5.229,18.935" transform="translate(-235.89 -18.076)" fill="none" stroke="#fff" stroke-linecap="round" stroke-linejoin="round" stroke-width="0.3"/>
      <path id="Tracé_97" data-name="Tracé 97" d="M152.07,45.273s.322,1.586,5.007.62c2.052-.424.817,1.19-1.264,2.156-1.708.793-5.539,1-5.6-.1-.161-2.827,2.016-1.968,1.859-2.676-.142-.638-1.116-1.264-1.76-2.825-.562-1.363-7.71-11.813,1.982-10.261.355-.073-2.528-9.22-11.6-9.368s-8.772,11.153-8.772,11.153" transform="translate(-119.636 -22.376)" fill="none" stroke="#fff" stroke-linecap="round" stroke-linejoin="bevel" stroke-width="0.3"/>
      <path id="Tracé_98" data-name="Tracé 98" d="M141.533,269.282c-1.264,1.412-.893,1.66-3.42,2.181-2.557.527-1.055,1.465-.074,1.71a5.194,5.194,0,0,0,5.8-1.884,1.735,1.735,0,0,0-.781-2.379A1.148,1.148,0,0,0,141.533,269.282Z" transform="translate(-123.969 -245.418)" fill="none" stroke="#fff" stroke-linecap="round" stroke-linejoin="round" stroke-width="0.3"/>
      <path id="Tracé_99" data-name="Tracé 99" d="M135.611,137.844a6.682,6.682,0,0,1,.7-2.975c.645-1.735,2.132-3.469.942-8.972-.887-4.1-6.835-.853-6.839-.3a27.907,27.907,0,0,1-.1,5.452c-.481,3.438,2.187,6.345,5.26,6.047" transform="translate(-118.13 -114.004)" fill="none" stroke="#fff" stroke-linecap="round" stroke-linejoin="round" stroke-width="0.3"/>
      <path id="Tracé_100" data-name="Tracé 100" d="M172.5,139.344c-.027.19.348.7.836.764a.9.9,0,0,0,.931-.518c.026-.19-.348-.4-.836-.467s-.905.031-.931.22Z" transform="translate(-156.438 -127.832)" fill="#fff" stroke="#fff" stroke-width="0.3"/>
      <path id="Tracé_101" data-name="Tracé 101" d="M314.715,135.188c.026.19-.348.7-.836.764a.9.9,0,0,1-.932-.518c-.026-.19.348-.4.836-.467s.9.031.931.22Z" transform="translate(-283.803 -124.062)" fill="#fff" stroke="#fff" stroke-width="0.3"/>
      <path id="Tracé_102" data-name="Tracé 102" d="M340.538,123.432c.08,1.489-.321,2.5-.371,4.09-.075,2.3,1.1,4.943-.67,7.584" transform="translate(-307.881 -113.621)" fill="none" stroke="#fff" stroke-linecap="round" stroke-linejoin="round" stroke-width="0.3"/>
      <path id="Tracé_103" data-name="Tracé 103" d="M0,60.232" transform="translate(0 -56.306)" fill="none" stroke="#fff" stroke-linecap="round" stroke-linejoin="round" stroke-width="0.3"/>
    </g>
  </g>
</svg>
