<svg id="REACTLogo" xmlns="http://www.w3.org/2000/svg" width="57.314" height="64.99" viewBox="0 0 57.314 64.99">
  <g id="HTML5Logo">
    <path id="Tracé_2" data-name="Tracé 2" d="M79.813,159.115,74.6,100.6h57.314L126.7,159.084l-23.491,6.506" transform="translate(-74.6 -100.6)" fill="#61dafb"/>
    <path id="Tracé_3" data-name="Tracé 3" d="M256,186.213V131h23.428l-4.471,49.921" transform="translate(-227.343 -126.197)" fill="#a7ecff"/>
  </g>
  <g id="REACTLogo-2" data-name="REACTLogo" transform="translate(8.945 15.069)">
    <path id="Tracé_10" data-name="Tracé 10" d="M215.137,95.564c0-2.612-3.271-5.092-8.288-6.624,1.158-5.112.643-9.18-1.627-10.482a3.524,3.524,0,0,0-1.8-.45V79.8a1.861,1.861,0,0,1,.919.212c1.093.627,1.568,3.015,1.2,6.082-.088.755-.233,1.552-.41,2.363a38.948,38.948,0,0,0-5.1-.876,39.212,39.212,0,0,0-3.344-4.019c2.621-2.436,5.08-3.77,6.752-3.77V78h0c-2.211,0-5.1,1.576-8.03,4.309-2.926-2.717-5.82-4.276-8.03-4.276v1.792c1.664,0,4.132,1.327,6.752,3.748a37.97,37.97,0,0,0-3.32,4.011,37.541,37.541,0,0,0-5.112.884c-.185-.8-.322-1.583-.418-2.334-.378-3.071.088-5.458,1.174-6.093a1.789,1.789,0,0,1,.924-.212V78.04a6.566,6.566,0,0,0-1.817.45c-2.259,1.3-2.765,5.362-1.6,10.458-5,1.543-8.256,4.011-8.256,6.616s3.271,5.092,8.288,6.624c-1.158,5.112-.643,9.18,1.627,10.482a3.536,3.536,0,0,0,1.809.45c2.211,0,5.1-1.576,8.03-4.309,2.926,2.717,5.82,4.276,8.031,4.276a3.584,3.584,0,0,0,1.817-.45c2.259-1.3,2.765-5.362,1.6-10.458C211.881,100.644,215.137,98.168,215.137,95.564ZM204.671,90.2c-.3,1.037-.667,2.106-1.086,3.175-.33-.643-.675-1.286-1.053-1.929s-.764-1.273-1.158-1.881C202.517,89.739,203.618,89.945,204.671,90.2Zm-3.682,8.561c-.627,1.086-1.273,2.114-1.937,3.071-1.2.1-2.412.161-3.634.161s-2.428-.057-3.617-.153q-1-1.435-1.946-3.054-.919-1.58-1.672-3.2c.5-1.077,1.061-2.154,1.664-3.207.627-1.086,1.273-2.114,1.937-3.071,1.2-.1,2.411-.161,3.633-.161s2.428.057,3.617.153q1,1.435,1.945,3.054.919,1.58,1.672,3.2C202.149,96.633,201.593,97.711,200.989,98.764Zm2.6-1.045c.434,1.077.8,2.154,1.11,3.2-1.053.257-2.163.475-3.312.643.394-.619.788-1.254,1.158-1.905s.716-1.294,1.045-1.937Zm-8.151,8.577a33.144,33.144,0,0,1-2.235-2.572c.723.032,1.463.057,2.211.057s1.5-.016,2.235-.057a31.362,31.362,0,0,1-2.21,2.572Zm-5.981-4.738c-1.141-.169-2.242-.378-3.3-.636.3-1.037.667-2.106,1.086-3.175.33.643.675,1.286,1.053,1.929s.764,1.275,1.158,1.886Zm5.94-16.728a33.162,33.162,0,0,1,2.235,2.572c-.723-.032-1.463-.057-2.211-.057s-1.5.016-2.235.057a31.392,31.392,0,0,1,2.211-2.569Zm-5.948,4.738c-.394.619-.788,1.254-1.158,1.905s-.716,1.286-1.045,1.929c-.434-1.077-.8-2.154-1.11-3.2C187.187,89.951,188.3,89.739,189.446,89.567Zm-7.275,10.064c-2.846-1.214-4.687-2.805-4.687-4.068s1.839-2.862,4.687-4.068c.692-.3,1.447-.566,2.227-.812a38.619,38.619,0,0,0,1.809,4.9,38.068,38.068,0,0,0-1.784,4.871A23.063,23.063,0,0,1,182.171,99.631Zm4.324,11.487c-1.093-.627-1.568-3.015-1.2-6.082.088-.755.233-1.552.41-2.363a38.963,38.963,0,0,0,5.1.876,39.214,39.214,0,0,0,3.344,4.019c-2.621,2.436-5.08,3.77-6.752,3.77a1.919,1.919,0,0,1-.908-.22Zm19.067-6.126c.378,3.071-.088,5.458-1.174,6.093a1.789,1.789,0,0,1-.924.212c-1.664,0-4.132-1.327-6.752-3.748a37.957,37.957,0,0,0,3.32-4.011,37.543,37.543,0,0,0,5.112-.884,22.5,22.5,0,0,1,.419,2.339Zm3.095-5.362c-.692.3-1.447.566-2.227.812a38.612,38.612,0,0,0-1.809-4.9,38.064,38.064,0,0,0,1.784-4.871c.8.249,1.552.523,2.259.82,2.846,1.214,4.687,2.805,4.687,4.068s-1.847,2.862-4.7,4.068Z" transform="translate(-175.701 -78)" fill="#fff"/>
    <path id="Tracé_11" data-name="Tracé 11" d="M320.8,78.4Z" transform="translate(-309.137 -78.368)" fill="#fff"/>
    <ellipse id="Ellipse_1" data-name="Ellipse 1" cx="3.674" cy="3.674" rx="3.674" ry="3.674" transform="translate(16.036 13.891)" fill="#fff"/>
    <path id="Tracé_12" data-name="Tracé 12" d="M520.5,78.1Z" transform="translate(-492.784 -78.092)" fill="#fff"/>
  </g>
</svg>
