<svg width="286" height="83" viewBox="0 0 286 83" fill="none" xmlns="http://www.w3.org/2000/svg">
<path d="M49.6348 67.8885L61.5 32.1464H66.1875L78.1016 67.8885H74.4395L71.168 58.1473H56.3242L53.1992 67.8885H49.6348ZM63.7217 34.6366C63.4775 35.3853 63.0706 36.6792 62.501 38.5184C61.9476 40.3413 61.5407 41.6678 61.2803 42.4979L57.1543 55.4862H70.3379L66.1875 42.4735C65.2435 39.5438 64.4215 36.9315 63.7217 34.6366ZM91.2607 67.8885L79.0293 32.1464H82.8135L89.9668 53.3378C90.1458 53.8586 90.6016 55.2421 91.334 57.4882C92.0827 59.718 92.6523 61.427 93.043 62.6151C93.4336 61.4432 93.9951 59.7912 94.7275 57.6591C95.46 55.5269 95.9564 54.0865 96.2168 53.3378L103.248 32.1464H106.861L94.6299 67.8885H91.2607ZM134.693 67.8885H110.768V32.1464H134.425V34.8807H114.332V47.4296H131.812V50.2372H114.332V65.1298H134.693V67.8885ZM138.697 67.8885V32.1464H142.677L164.723 62.493V52.8983V32.1464H167.872V67.8885H164.649L141.944 36.3944C141.944 36.3944 141.944 39.7717 141.944 46.5262V67.8885H138.697ZM196.485 53.8749V32.1464H200.392V53.2889C200.392 54.8189 200.465 56.1617 200.611 57.3173C200.758 58.4729 201.043 59.5878 201.466 60.662C201.889 61.7199 202.451 62.5907 203.15 63.2743C203.85 63.9579 204.77 64.5031 205.909 64.91C207.065 65.3007 208.424 65.496 209.986 65.496C211.549 65.496 212.9 65.3007 214.039 64.91C215.178 64.5031 216.09 63.9579 216.773 63.2743C217.473 62.5907 218.027 61.7199 218.434 60.662C218.857 59.5878 219.142 58.4729 219.288 57.3173C219.435 56.1617 219.508 54.8189 219.508 53.2889V32.1464H223.341V53.704C223.341 58.7984 222.242 62.5419 220.045 64.9344C217.848 67.3108 214.446 68.4989 209.84 68.4989C205.348 68.4989 201.995 67.3352 199.781 65.0077C197.584 62.6639 196.485 58.953 196.485 53.8749ZM255.982 41.6434C255.982 44.0848 255.348 46.0705 254.078 47.6005C252.825 49.1141 250.888 50.2209 248.268 50.9208L256.568 67.8885H252.76L244.654 51.4579H233.497V67.8885H229.957V32.1464H242.872C247.511 32.1464 250.855 32.9195 252.906 34.4657C254.957 35.9956 255.982 38.3882 255.982 41.6434ZM233.497 34.7831V48.6991H242.066C243.238 48.6991 244.264 48.6584 245.143 48.577C246.038 48.4956 246.957 48.3085 247.901 48.0155C248.862 47.7225 249.643 47.3319 250.245 46.8436C250.864 46.3553 251.368 45.6799 251.759 44.8173C252.149 43.9384 252.345 42.8967 252.345 41.6923C252.345 40.4553 252.158 39.4055 251.783 38.5428C251.409 37.6639 250.937 36.9885 250.367 36.5165C249.814 36.0282 249.073 35.6538 248.146 35.3934C247.234 35.1167 246.38 34.9458 245.582 34.8807C244.785 34.8156 243.808 34.7831 242.652 34.7831H233.497ZM285.279 67.8885H261.354V32.1464H285.011V34.8807H264.918V47.4296H282.398V50.2372H264.918V65.1298H285.279V67.8885Z" fill="white"/>
<path d="M35.4492 68.3516H32.3438L23.8477 40.4609L15.293 68.3516H11.543L0.9375 30.4414L6.15234 29.3281L14.1211 59.2109L22.207 29.9141H26.0156L33.9258 59.1523L42.0703 29.3281L46.1133 30.4414L35.4492 68.3516Z" fill="white"/>
<rect width="5.06665" height="1.46903" rx="0.734513" transform="matrix(-1 0 0 1 176.067 21.3009)" fill="#A487B3"/>
<rect width="5.06665" height="1.46903" rx="0.734513" transform="matrix(-1 0 0 1 195 21.3009)" fill="#A487B3"/>
<path d="M185.667 23.382H180.333L181 79.205H184.933L185.667 23.382Z" fill="white"/>
<rect width="4.53332" height="1.22419" rx="0.612094" transform="matrix(-1 0 0 1 185.267 19.587)" fill="#A487B3"/>
<rect width="4.53332" height="1.22419" rx="0.612094" transform="matrix(-1 0 0 1 185.267 17.9956)" fill="#A487B3"/>
<rect width="4.53332" height="1.22419" rx="0.612094" transform="matrix(-1 0 0 1 185.267 16.4041)" fill="#A487B3"/>
<rect width="4.53332" height="1.22419" rx="0.612094" transform="matrix(-1 0 0 1 185.267 14.8127)" fill="#A487B3"/>
<rect width="4.53332" height="1.22419" rx="0.612094" transform="matrix(-1 0 0 1 185.267 13.2213)" fill="#A487B3"/>
<rect width="4.53332" height="1.22419" rx="0.612094" transform="matrix(-1 0 0 1 185.267 11.6298)" fill="#A487B3"/>
<rect width="4.53332" height="1.22419" rx="0.612094" transform="matrix(-1 0 0 1 185.267 10.0384)" fill="#A487B3"/>
<rect width="4.53332" height="1.22419" rx="0.612094" transform="matrix(-1 0 0 1 185.267 8.4469)" fill="#A487B3"/>
<rect width="4.53332" height="1.22419" rx="0.612094" transform="matrix(-1 0 0 1 185.267 6.85547)" fill="#A487B3"/>
<rect width="4.53332" height="1.22419" rx="0.612094" transform="matrix(-1 0 0 1 185.267 5.26401)" fill="#A487B3"/>
<rect x="-1.22419" y="1.22419" width="2.88494" height="2.44838" rx="1.22419" transform="matrix(-1 0 0 1 183.218 0)" fill="white" stroke="#C4C4C4" stroke-width="2.44838"/>
<rect x="-0.612094" y="0.612094" width="1.44247" height="1.22419" rx="0.612094" transform="matrix(-1 0 0 1 183.109 1.22418)" fill="white" stroke="#C4C4C4" stroke-width="1.22419"/>
<path d="M185.667 23.382H183V79.205L184.933 78.7154L185.667 23.382Z" fill="#C4C4C4"/>
<rect x="-0.433332" y="0.433332" width="0.866664" height="54.9563" rx="0.433332" transform="matrix(-1 0 0 1 183.067 23.382)" fill="white" stroke="#C4C4C4" stroke-width="0.866664"/>
<path d="M184.933 79.205H181L182.1 81.2928C182.478 82.01 183.508 82.0029 183.876 81.2805L184.933 79.205Z" fill="white"/>
<rect width="11.4666" height="1.46903" rx="0.734513" transform="matrix(-1 0 0 1 188.733 21.3009)" fill="#A487B3"/>
<ellipse rx="0.399999" ry="0.367257" transform="matrix(-1 0 0 1 176.733 22.0354)" fill="#A487B3"/>
<ellipse rx="0.399999" ry="0.367257" transform="matrix(-1 0 0 1 189.4 22.0354)" fill="#A487B3"/>
</svg>
